<svg id="visual" viewBox="0 0 200 50" width="200" height="50" xmlns="http://www.w3.org/2000/svg" xmlns:xlink="http://www.w3.org/1999/xlink" version="1.1"><rect x="0" y="0" width="200" height="50" fill="#16171D"></rect><path d="M0 13L6.7 12.2C13.3 11.3 26.7 9.7 40 11.5C53.3 13.3 66.7 18.7 80 17.7C93.3 16.7 106.7 9.3 120 9C133.3 8.7 146.7 15.3 160 17.5C173.3 19.7 186.7 17.3 193.3 16.2L200 15L200 0L193.3 0C186.7 0 173.3 0 160 0C146.7 0 133.3 0 120 0C106.7 0 93.3 0 80 0C66.7 0 53.3 0 40 0C26.7 0 13.3 0 6.7 0L0 0Z" fill="#272830" stroke-linecap="round" stroke-linejoin="miter"></path></svg>